<svg width="100%" height="100%" viewBox="0 0 80 100" fill="none" xmlns="http://www.w3.org/2000/svg">
    <path d="M40 5C40 5 75 45 75 72C75 92 59 100 40 100C21 100 5 92 5 72C5 45 40 5 40 5Z" fill="url(#grad_ext)"/>
    <path d="M40 35C40 35 62 60 62 78C62 90 52 95 40 95C28 95 18 90 18 78C18 60 40 35 40 35Z" fill="url(#grad_int)"/>
    <defs>
        <linearGradient id="grad_ext" x1="40" y1="5" x2="40" y2="100" gradientUnits="userSpaceOnUse">
            <stop stop-color="#FF9E0B"/>
            <stop offset="1" stop-color="#8B2B1F"/>
        </linearGradient>
        <linearGradient id="grad_int" x1="40" y1="35" x2="40" y2="95" gradientUnits="userSpaceOnUse">
            <stop stop-color="#FFF33B"/>
            <stop offset="1" stop-color="#FF9E0B"/>
        </linearGradient>
    </defs>
</svg>
